{"title":"R...Rajkumar (2013) - DVDRip - 720p - X264 - Ac3 5.1 - ESub - [C","uid":9520924,"size":2370820413,"categoryP":"video","categoryS":"hd___movies","magnet":"?xt=urn:btih:18bdcb11d4cfd4f4059c5991652ec2411d481702&amp;dn=R...Rajkumar+%282013%29+-+DVDRip+-+720p+-+X264+-+Ac3+5.1+-+ESub+-+%5BC&amp;tr=udp%3A%2F%2Ftracker.openbittorrent.com%3A80&amp;tr=udp%3A%2F%2Fopen.demonii.com%3A1337&amp;tr=udp%3A%2F%2Ftracker.coppersurfer.tk%3A6969&amp;tr=udp%3A%2F%2Fexodus.desync.com%3A6969","seeders":2,"leechers":0,"uploader":"Chaudhary1","files":3,"time":1390631544,"description":" &lt;a href=&quot;http://imagizer.imageshack.us/v2/800x600q90/829/f9g2.jpg&quot; rel=&quot;nofollow&quot; target=&quot;_NEW&quot;&gt;http://imagizer.imageshack.us/v2/800x600q90/829/f9g2.jpg&lt;/a&gt;\n\nSource         : DvD 9 D3Si MaNiaCs @ Thanks\nFormat                                   : Matroska\nFormat version                           : Version 4 / Version 2\nFile size                                : 2.20 GiB\nDuration                                 : 2h 26mn\nOverall bit rate                         : 2 149 Kbps\nMovie name                               : Chaudhary\n\nVideo\n\nFormat                                   : AVC\nFormat/Info                              : Advanced Video Codec\nFormat profile                           : &lt;a class=&quot;__cf_email__&quot; href=&quot;/cdn-cgi/l/email-protection&quot; data-cfemail=&quot;3b73525c537b770f150a&quot;&gt;[email&amp;#160;protected]&lt;/a&gt;&lt;script cf-hash='f9e31' type=&quot;text/javascript&quot;&gt;\n/* &lt;![CDATA[ */!function(){try{var t=&quot;currentScript&quot;in document?document.currentScript:function(){for(var t=document.getElementsByTagName(&quot;script&quot;),e=t.length;e--;)if(t[e].getAttribute(&quot;cf-hash&quot;))return t[e]}();if(t&amp;&amp;t.previousSibling){var e,r,n,i,c=t.previousSibling,a=c.getAttribute(&quot;data-cfemail&quot;);if(a){for(e=&quot;&quot;,r=parseInt(a.substr(0,2),16),n=2;a.length-n;n+=2)i=parseInt(a.substr(n,2),16)^r,e+=String.fromCharCode(i);e=document.createTextNode(e),c.parentNode.replaceChild(e,c)}}}catch(u){}}();/* ]]&gt; */&lt;/script&gt;\nFormat settings, CABAC                   : Yes\nFormat settings, ReFrames                : 4 frames\nCodec ID                                 : V_MPEG4/ISO/AVC\nDuration                                 : 2h 26mn\nBit rate                                 : 1 924 Kbps\nWidth                                    : 1 280 pixels\nHeight                                   : 544 pixels\nDisplay aspect ratio                     : 2.40:1\nFrame rate                               : 23.976 fps\nColor space                              : YUV\nChroma subsampling                       : 4:2:0\nBit depth                                : 8 bits\nScan type                                : Progressive\nBits/(Pixel*Frame)                       : 0.115\nStream size                              : 1.92 GiB (88%)\nTitle                                    : Chaudhary\nWriting library                          : x264 core 138 r2358 9e941d1\nLanguage                                 : English\nDefault                                  : Yes\nForced                                   : No\n\nAudio\n\nFormat                                   : AC-3\nFormat/Info                              : Audio Coding 3\nMode extension                           : CM (complete main)\nCodec ID                                 : A_AC3\nDuration                                 : 2h 26mn\nBit rate mode                            : Constant\nBit rate                                 : 224 Kbps\nChannel(s)                               : 6 channels\nChannel positions                        : Front: L C R, Side: L R, LFE\nSampling rate                            : 48.0 KHz\nBit depth                                : 16 bits\nCompression mode                         : Lossy\nDelay relative to video                  : 550ms\nStream size                              : 234 MiB (10%)\nTitle                                    : Chaudhary\nDefault                                  : Yes\nForced                                   : No\n &lt;a href=&quot;\nhttp://i.imgur.com/BZG9Enf.png&quot; rel=&quot;nofollow&quot; target=&quot;_NEW&quot;&gt;\nhttp://i.imgur.com/BZG9Enf.png&lt;/a&gt; &lt;a href=&quot;\nhttp://i.imgur.com/fhRwWVn.png&quot; rel=&quot;nofollow&quot; target=&quot;_NEW&quot;&gt;\nhttp://i.imgur.com/fhRwWVn.png&lt;/a&gt; &lt;a href=&quot;\nhttp://i.imgur.com/q20U6K9.png&quot; rel=&quot;nofollow&quot; target=&quot;_NEW&quot;&gt;\nhttp://i.imgur.com/q20U6K9.png&lt;/a&gt; &lt;a href=&quot;\nhttp://i.imgur.com/AdtyH3a.png&quot; rel=&quot;nofollow&quot; target=&quot;_NEW&quot;&gt;\nhttp://i.imgur.com/AdtyH3a.png&lt;/a&gt; &lt;a href=&quot;\nhttp://i.imgur.com/AaGt2Ij.png&quot; rel=&quot;nofollow&quot; target=&quot;_NEW&quot;&gt;\nhttp://i.imgur.com/AaGt2Ij.png&lt;/a&gt; &lt;a href=&quot;\nhttp://i.imgur.com/YoJP3Dp.png&quot; rel=&quot;nofollow&quot; target=&quot;_NEW&quot;&gt;\nhttp://i.imgur.com/YoJP3Dp.png&lt;/a&gt; &lt;a href=&quot;\nhttp://i.imgur.com/FHkJFg4.png&quot; rel=&quot;nofollow&quot; target=&quot;_NEW&quot;&gt;\nhttp://i.imgur.com/FHkJFg4.png&lt;/a&gt; &lt;a href=&quot;\nhttp://i.imgur.com/xg4GsUB.png&quot; rel=&quot;nofollow&quot; target=&quot;_NEW&quot;&gt;\nhttp://i.imgur.com/xg4GsUB.png&lt;/a&gt; &lt;a href=&quot;\nhttp://i.imgur.com/OUpX9rT.png&quot; rel=&quot;nofollow&quot; target=&quot;_NEW&quot;&gt;\nhttp://i.imgur.com/OUpX9rT.png&lt;/a&gt; &lt;a href=&quot;\nhttp://i.imgur.com/qV5Z39A.png&quot; rel=&quot;nofollow&quot; target=&quot;_NEW&quot;&gt;\nhttp://i.imgur.com/qV5Z39A.png&lt;/a&gt; &lt;a href=&quot;\nhttp://i.imgur.com/dX6xyUu.png&quot; rel=&quot;nofollow&quot; target=&quot;_NEW&quot;&gt;\nhttp://i.imgur.com/dX6xyUu.png&lt;/a&gt;","torrent":{"xt":"urn:btih:18bdcb11d4cfd4f4059c5991652ec2411d481702","amp;dn":"R...Rajkumar+%282013%29+-+DVDRip+-+720p+-+X264+-+Ac3+5.1+-+ESub+-+%5BC","amp;tr":["udp%3A%2F%2Ftracker.openbittorrent.com%3A80","udp%3A%2F%2Fopen.demonii.com%3A1337","udp%3A%2F%2Ftracker.coppersurfer.tk%3A6969","udp%3A%2F%2Fexodus.desync.com%3A6969"],"infoHash":"18bdcb11d4cfd4f4059c5991652ec2411d481702","infoHashBuffer":{"type":"Buffer","data":[24,189,203,17,212,207,212,244,5,156,89,145,101,46,194,65,29,72,23,2]},"announce":[],"urlList":[]}}